<mxfile host="Electron" agent="Mozilla/5.0 (X11; Linux x86_64) AppleWebKit/537.36 (KHTML, like Gecko) draw.io/26.1.1 Chrome/132.0.6834.210 Electron/34.3.3 Safari/537.36" version="26.1.1">
  <diagram name="Page-1" id="zjDdoG1yIiPmEmm9rX4u">
    <mxGraphModel dx="3116" dy="2810" grid="1" gridSize="10" guides="1" tooltips="1" connect="1" arrows="1" fold="1" page="1" pageScale="1" pageWidth="827" pageHeight="1169" math="0" shadow="0">
      <root>
        <mxCell id="0" />
        <mxCell id="1" parent="0" />
        <mxCell id="SFhvWP6uEKZodn0RPPMk-15" style="edgeStyle=orthogonalEdgeStyle;rounded=0;orthogonalLoop=1;jettySize=auto;html=1;exitX=0.5;exitY=1;exitDx=0;exitDy=0;" edge="1" parent="1" source="SFhvWP6uEKZodn0RPPMk-1" target="SFhvWP6uEKZodn0RPPMk-2">
          <mxGeometry relative="1" as="geometry" />
        </mxCell>
        <mxCell id="SFhvWP6uEKZodn0RPPMk-16" style="edgeStyle=orthogonalEdgeStyle;rounded=0;orthogonalLoop=1;jettySize=auto;html=1;exitX=0.5;exitY=1;exitDx=0;exitDy=0;" edge="1" parent="1" source="SFhvWP6uEKZodn0RPPMk-1" target="SFhvWP6uEKZodn0RPPMk-5">
          <mxGeometry relative="1" as="geometry" />
        </mxCell>
        <mxCell id="SFhvWP6uEKZodn0RPPMk-17" style="edgeStyle=orthogonalEdgeStyle;rounded=0;orthogonalLoop=1;jettySize=auto;html=1;exitX=0.5;exitY=1;exitDx=0;exitDy=0;" edge="1" parent="1" source="SFhvWP6uEKZodn0RPPMk-1" target="SFhvWP6uEKZodn0RPPMk-4">
          <mxGeometry relative="1" as="geometry" />
        </mxCell>
        <mxCell id="SFhvWP6uEKZodn0RPPMk-30" style="edgeStyle=orthogonalEdgeStyle;rounded=0;orthogonalLoop=1;jettySize=auto;html=1;exitX=0;exitY=0.5;exitDx=0;exitDy=0;" edge="1" parent="1" source="SFhvWP6uEKZodn0RPPMk-1" target="SFhvWP6uEKZodn0RPPMk-28">
          <mxGeometry relative="1" as="geometry" />
        </mxCell>
        <mxCell id="SFhvWP6uEKZodn0RPPMk-2" value="&lt;font style=&quot;font-size: 24px;&quot;&gt;🍋 Lemonade&lt;/font&gt;" style="rounded=1;whiteSpace=wrap;html=1;" vertex="1" parent="1">
          <mxGeometry x="-440" y="-100" width="256" height="220" as="geometry" />
        </mxCell>
        <mxCell id="SFhvWP6uEKZodn0RPPMk-4" value="&lt;font style=&quot;font-size: 24px;&quot;&gt;🍋 Lemonade&lt;/font&gt;" style="rounded=1;whiteSpace=wrap;html=1;" vertex="1" parent="1">
          <mxGeometry x="-117" y="-100" width="256" height="220" as="geometry" />
        </mxCell>
        <mxCell id="SFhvWP6uEKZodn0RPPMk-5" value="&lt;font style=&quot;font-size: 24px;&quot;&gt;🍋 Lemonade&lt;/font&gt;" style="rounded=1;whiteSpace=wrap;html=1;" vertex="1" parent="1">
          <mxGeometry x="203" y="-100" width="256" height="220" as="geometry" />
        </mxCell>
        <mxCell id="SFhvWP6uEKZodn0RPPMk-13" value="" style="group" vertex="1" connectable="0" parent="1">
          <mxGeometry x="-117" y="-1080" width="302.37" height="220" as="geometry" />
        </mxCell>
        <mxCell id="SFhvWP6uEKZodn0RPPMk-21" value="" style="group" vertex="1" connectable="0" parent="SFhvWP6uEKZodn0RPPMk-13">
          <mxGeometry width="302.37" height="220" as="geometry" />
        </mxCell>
        <mxCell id="SFhvWP6uEKZodn0RPPMk-12" value="&lt;font style=&quot;font-size: 24px;&quot;&gt;&amp;nbsp; &amp;nbsp; &amp;nbsp; &amp;nbsp; Cloudflare&lt;/font&gt;&lt;div&gt;&lt;font style=&quot;font-size: 24px;&quot;&gt;&amp;nbsp; &amp;nbsp;Tunnel&lt;/font&gt;&lt;/div&gt;" style="rounded=1;whiteSpace=wrap;html=1;" vertex="1" parent="SFhvWP6uEKZodn0RPPMk-21">
          <mxGeometry width="256" height="220" as="geometry" />
        </mxCell>
        <mxCell id="SFhvWP6uEKZodn0RPPMk-20" value="" style="shape=image;verticalLabelPosition=bottom;labelBackgroundColor=default;verticalAlign=top;aspect=fixed;imageAspect=0;editableCssRules=.*;image=data:image/svg+xml,PHN2ZyB4bWxucz0iaHR0cDovL3d3dy53My5vcmcvMjAwMC9zdmciIGZpbGw9Im5vbmUiIGhlaWdodD0iMTguNzcwMDAwNDU3NzYzNjcyIiB3aWR0aD0iMzkuNzgwMDAyNTkzOTk0MTQiIHZpZXdCb3g9IjAgMCAzOS43ODAwMDI1OTM5OTQxNCAxOC43NzAwMDA0NTc3NjM2NzIiPjxwYXRoIGQ9Im0yNy4xNiAxOC41MDcuMjA0LS43MzVjLjI0Mi0uODczLjE1Mi0xLjY4LS4yNTUtMi4yNzQtLjM3NC0uNTQ3LS45OTgtLjg2OC0xLjc1NS0uOTA2bC0xNC4zNDYtLjE5YS4zLjMgMCAwIDEtLjEyNy0uMDM0LjMuMyAwIDAgMS0uMDk5LS4wOS4zMS4zMSAwIDAgMS0uMDMtLjI3LjQuNCAwIDAgMSAuMTI4LS4xODUuMzcuMzcgMCAwIDEgLjIwNS0uMDgxbDE0LjQ3OS0uMTkyYzEuNzE3LS4wODIgMy41NzYtMS41MzYgNC4yMjctMy4zMWwuODI2LTIuMjVhLjU1LjU1IDAgMCAwIC4wMjItLjI5OEMyOS43MDIgMy4yOSAyNS45NCAwIDIxLjQ0IDBjLTQuMTQ2IDAtNy42NjcgMi43OTItOC45MjggNi42NzNhNC4xIDQuMSAwIDAgMC0yLjk3OC0uODZjLTEuOTkuMjA2LTMuNTg5IDEuODc3LTMuNzg2IDMuOTUzYTQuNiA0LjYgMCAwIDAgLjExIDEuNTQ3QzIuNjA1IDExLjQxIDAgMTQuMTg5IDAgMTcuNjAzcTAgLjQ1OS4wNjUuOTExYy4wMDkuMDcuMDQyLjEzNC4wOTMuMTguMDUuMDQ3LjExNi4wNzIuMTgzLjA3M2wyNi40ODUuMDAzaC4wMDdhLjM0LjM0IDAgMCAwIC4yMDUtLjA3Ni4zNi4zNiAwIDAgMCAuMTIyLS4xODciIGZpbGw9IiNGNjgyMUYiLz48cGF0aCBkPSJNMzEuOTQgOC4xNTNxLS4yIDAtLjM5Ny4wMWEuMi4yIDAgMCAwLS4wNjIuMDE0LjIuMiAwIDAgMC0uMDkxLjA2MS4yNC4yNCAwIDAgMC0uMDU0LjA5OGwtLjU2NCAyLjAzM2MtLjI0My44NzQtLjE1MiAxLjY4LjI1NCAyLjI3NC4zNzUuNTQ3Ljk5OC44NjggMS43NTYuOTA2bDMuMDU4LjE5MWEuMy4zIDAgMCAxIC4xMjMuMDM1LjI4LjI4IDAgMCAxIC4xNDIuMjIuMy4zIDAgMCAxLS4wMTUuMTQuNC40IDAgMCAxLS4xMjguMTg1LjM3LjM3IDAgMCAxLS4yMDUuMDhsLTMuMTc3LjE5MmMtMS43MjUuMDgzLTMuNTg1IDEuNTM2LTQuMjM1IDMuMzFsLS4yMy42MjZhLjE4LjE4IDAgMCAwIC4wMTcuMTYuMTY2LjE2NiAwIDAgMCAuMTM0LjA4aDEwLjk0MWMuMDY0IDAgLjEyNi0uMDIxLjE3Ni0uMDZhLjMuMyAwIDAgMCAuMTA2LS4xNiA4LjUgOC41IDAgMCAwIC4yOTEtMi4yMTZjMC00LjUxNy0zLjUxLTguMTgtNy44NC04LjE4IiBmaWxsPSIjRkJBRDQxIi8+PC9zdmc+;" vertex="1" parent="SFhvWP6uEKZodn0RPPMk-21">
          <mxGeometry x="51" y="84" width="40" height="19" as="geometry" />
        </mxCell>
        <mxCell id="SFhvWP6uEKZodn0RPPMk-42" value="&lt;ul&gt;&lt;li&gt;Conceal your IP address&lt;/li&gt;&lt;li&gt;No need for dynamic DNS, port forwarding, etc.&lt;br&gt;&lt;/li&gt;&lt;/ul&gt;" style="text;html=1;align=left;verticalAlign=middle;whiteSpace=wrap;rounded=0;" vertex="1" parent="SFhvWP6uEKZodn0RPPMk-21">
          <mxGeometry x="56" y="140" width="200" height="70" as="geometry" />
        </mxCell>
        <mxCell id="SFhvWP6uEKZodn0RPPMk-28" value="&lt;font style=&quot;font-size: 24px;&quot;&gt;Postgres&lt;/font&gt;" style="rounded=1;whiteSpace=wrap;html=1;" vertex="1" parent="1">
          <mxGeometry x="-440" y="-450" width="256" height="220" as="geometry" />
        </mxCell>
        <mxCell id="SFhvWP6uEKZodn0RPPMk-31" value="" style="group" vertex="1" connectable="0" parent="1">
          <mxGeometry x="-117" y="-770" width="302.37" height="220" as="geometry" />
        </mxCell>
        <mxCell id="SFhvWP6uEKZodn0RPPMk-32" value="" style="group" vertex="1" connectable="0" parent="SFhvWP6uEKZodn0RPPMk-31">
          <mxGeometry width="302.37" height="220" as="geometry" />
        </mxCell>
        <mxCell id="SFhvWP6uEKZodn0RPPMk-33" value="&lt;font style=&quot;font-size: 24px;&quot;&gt;&amp;nbsp; &amp;nbsp; &amp;nbsp;Traefik&lt;/font&gt;" style="rounded=1;whiteSpace=wrap;html=1;" vertex="1" parent="SFhvWP6uEKZodn0RPPMk-32">
          <mxGeometry width="256" height="220" as="geometry" />
        </mxCell>
        <mxCell id="SFhvWP6uEKZodn0RPPMk-37" value="" style="shape=image;aspect=fixed;image=data:image/svg+xml,PD94bWwgdmVyc2lvbj0iMS4wIiBlbmNvZGluZz0iVVRGLTgiPz4KPHN2ZyB3aWR0aD0iMTAuODQ0bW0iIGhlaWdodD0iOS43NjkybW0iIHZlcnNpb249IjEuMSIgdmlld0JveD0iMCAwIDEwLjg0NCA5Ljc2OTIiIHhtbG5zPSJodHRwOi8vd3d3LnczLm9yZy8yMDAwL3N2ZyI+CiA8ZyB0cmFuc2Zvcm09InRyYW5zbGF0ZSgtNDEuODA0IC01Ni4wOTIpIj4KICA8ZyB0cmFuc2Zvcm09Im1hdHJpeCguMTk1MzggMCAwIC4xOTUzOCA0MS44MDQgNTQuNzI0KSIgZmlsbD0ibm9uZSI+CiAgIDxwYXRoIHRyYW5zZm9ybT0idHJhbnNsYXRlKDAsNykiIGQ9Im0yNy43NSAwYzIuNTE3IDAgNC43NTQgMS43NzcgNC43NTQgMy45NjUgMCAyLjE4OS0yLjEzIDMuOTY2LTQuNzU0IDMuOTY2LTAuMyAwLTAuNjkyLTAuMDUtMS4xNzYtMC4xNDgtMC4zNzUtMC4wNzYtMC43NjYtMC4wMTQtMS4wOTkgMC4xNzZsLTE3LjA0NSA5LjcwMWMtMC4zOCAwLjIxNy0wLjUxMyAwLjctMC4yOTcgMS4wODIgMC4wNzEgMC4xMjUgMC4xNzUgMC4yMjggMC4zMDEgMC4yOTlsMTguNDc4IDEwLjM4MWMwLjQ4IDAuMjcgMS4wNjUgMC4yNzEgMS41NDYgNGUtM2wxOC41NzktMTAuMzM1YzAuMzgyLTAuMjEzIDAuNTItMC42OTYgMC4zMDctMS4wNzgtMC4wNy0wLjEyOC0wLjE3NS0wLjIzMy0wLjMwMS0wLjMwNWwtNS43OTctMy4yOTNjLTAuNDgtMC4yNzMtMS4wNjgtMC4yNzYtMS41NS03ZS0zbC02LjEyIDMuMzk2Yy0wLjE1NSAwLjA4Ni0wLjI1NiAwLjI0MS0wLjI3NSAwLjQxNGwtM2UtMyAwLjA1OWMwIDIuMTg4LTIuMTMgMy45NjUtNC43NTUgMy45NjUtMi42MjQgMC00Ljc1NC0xLjc3Ny00Ljc1NC0zLjk2NSAwLTIuMTg5IDIuMTMtMy45NjYgNC43NTQtMy45NjYgMC4wOTggMCAwLjIxIDZlLTMgMC4zMzYgMC4wMTZsMC4yIDAuMDIgMC4yMjMgMC4wMjhjMC4zMzggMC4wNDYgMC42ODMtMC4wMTkgMC45ODItMC4xODVsOS4wNS01LjAyM2MwLjY5My0wLjM4NCAxLjUzLTAuMzk3IDIuMjMxLTAuMDRsMC4wOTUgMC4wNTIgMTIuNjM3IDcuMThjMS41ODUgMC45IDEuNjAzIDMuMTYzIDAuMDY3IDQuMDk4bC0wLjA4NSAwLjA1LTguNDU0IDQuNzAyYy0wLjM4MyAwLjIxMy0wLjUyIDAuNjk2LTAuMzA4IDEuMDc4IDAuMDc1IDAuMTM1IDAuMTg4IDAuMjQ1IDAuMzI0IDAuMzE3bDguMzczIDQuNDA4YzEuNjYyIDAuODc0IDEuNzAyIDMuMjQyIDAuMDcgNC4xNzJsLTI1LjQyOCAxNC41MDRjLTAuNzMgMC40MTYtMS42MjYgMC40MTYtMi4zNTYgMGwtMjUuMjg1LTE0LjQ0NGMtMS42MzQtMC45MzMtMS41ODktMy4zMDYgMC4wNzktNC4xNzZsOC40NjQtNC40MmMwLjM4OC0wLjIwMiAwLjUzOS0wLjY4IDAuMzM3LTEuMDY5LTAuMDcyLTAuMTM3LTAuMTgxLTAuMjUtMC4zMTUtMC4zMjVsLTguNTY2LTQuODEyYy0xLjU4NS0wLjg5LTEuNjItMy4xNDYtMC4wOTYtNC4wOTNsMC4wODQtMC4wNSAyMS4wMzktMTEuOTczYzAuMzMzLTAuMTkgMC41ODUtMC40OTMgMC43MTItMC44NTNsMC4wMjctMC4wODRjMC43MzgtMi4yMDEgMi40MTktMy4zODkgNC43Ny0zLjM4OXptMTEuNzQgMjkuMjEtMTAuMzkgNS45NzgtMC4wOTUgMC4wNTJjLTAuNzA3IDAuMzY1LTEuNTUxIDAuMzUxLTIuMjQ4LTAuMDQybC0xMC4zNTYtNS44NDNjLTAuNDY2LTAuMjYyLTEuMDMyLTAuMjcxLTEuNTA2LTAuMDIzbC01Ljk3IDMuMTI0Yy0wLjM4NyAwLjIwMi0wLjUzNyAwLjY4MS0wLjMzNSAxLjA3IDAuMDcgMC4xMzUgMC4xNzcgMC4yNDYgMC4zMDkgMC4zMjJsMTguMjM5IDEwLjQ0MmMwLjQ4NSAwLjI3OCAxLjA4IDAuMjc5IDEuNTY2IDBsMTguMzk3LTEwLjUxN2MwLjM4LTAuMjE3IDAuNTExLTAuNzAxIDAuMjk1LTEuMDgyLTAuMDc1LTAuMTMxLTAuMTg1LTAuMjM5LTAuMzE5LTAuMzFsLTYuMDY1LTMuMmMtMC40NzktMC4yNTItMS4wNTMtMC4yNDItMS41MjMgMC4wMjh6IiBmaWxsPSIjMjRhMWMxIi8+CiAgPC9nPgogPC9nPgo8L3N2Zz4K;" vertex="1" parent="SFhvWP6uEKZodn0RPPMk-32">
          <mxGeometry x="51.18" y="90" width="36.01" height="32.5" as="geometry" />
        </mxCell>
        <mxCell id="SFhvWP6uEKZodn0RPPMk-41" value="&lt;ul&gt;&lt;li&gt;Add middleware for&lt;br&gt;security headers, etc.&lt;/li&gt;&lt;/ul&gt;" style="text;html=1;align=left;verticalAlign=middle;whiteSpace=wrap;rounded=0;" vertex="1" parent="SFhvWP6uEKZodn0RPPMk-32">
          <mxGeometry x="51.18" y="121" width="200" height="70" as="geometry" />
        </mxCell>
        <mxCell id="SFhvWP6uEKZodn0RPPMk-38" style="edgeStyle=orthogonalEdgeStyle;rounded=0;orthogonalLoop=1;jettySize=auto;html=1;exitX=0.5;exitY=1;exitDx=0;exitDy=0;" edge="1" parent="1" source="SFhvWP6uEKZodn0RPPMk-12" target="SFhvWP6uEKZodn0RPPMk-33">
          <mxGeometry relative="1" as="geometry" />
        </mxCell>
        <mxCell id="SFhvWP6uEKZodn0RPPMk-39" style="edgeStyle=orthogonalEdgeStyle;rounded=0;orthogonalLoop=1;jettySize=auto;html=1;exitX=0.5;exitY=1;exitDx=0;exitDy=0;" edge="1" parent="1" source="SFhvWP6uEKZodn0RPPMk-33" target="SFhvWP6uEKZodn0RPPMk-1">
          <mxGeometry relative="1" as="geometry" />
        </mxCell>
        <mxCell id="SFhvWP6uEKZodn0RPPMk-43" value="" style="group" vertex="1" connectable="0" parent="1">
          <mxGeometry x="-117" y="-450" width="256" height="220" as="geometry" />
        </mxCell>
        <mxCell id="SFhvWP6uEKZodn0RPPMk-1" value="&lt;font style=&quot;font-size: 24px;&quot;&gt;🚅 LiteLLM Proxy&lt;/font&gt;" style="rounded=1;whiteSpace=wrap;html=1;" vertex="1" parent="SFhvWP6uEKZodn0RPPMk-43">
          <mxGeometry width="256" height="220" as="geometry" />
        </mxCell>
        <mxCell id="SFhvWP6uEKZodn0RPPMk-40" value="&lt;ul&gt;&lt;li&gt;Routing for multiple models&lt;/li&gt;&lt;li&gt;Auth tokens&lt;/li&gt;&lt;li&gt;Usage limits&lt;/li&gt;&lt;/ul&gt;" style="text;html=1;align=left;verticalAlign=middle;whiteSpace=wrap;rounded=0;" vertex="1" parent="SFhvWP6uEKZodn0RPPMk-43">
          <mxGeometry x="41" y="130" width="200" height="70" as="geometry" />
        </mxCell>
      </root>
    </mxGraphModel>
  </diagram>
</mxfile>
